# xmcd CD database file
#
# Track frame offsets:
#	150
#	20714
#	41613
#
# Disc length: 823 seconds
#
# Revision: 0
# Processed by: cddbd v1.5PL3 Copyright (c) Steve Scherf et al.
# Submitted via: freeDB plugin v1.0
#
DISCID=1f033503
DTITLE=TUBE - 青いメロディー
DYEAR=1900
DGENRE=Rock
TTITLE0=青いメロディー
TTITLE1=夏だね〜costa del sol mix〜
TTITLE2=青いメロディー（Instrumental)
EXTD=
EXTT0=
EXTT1=
EXTT2=
PLAYORDER=
